# xmcd
#
# Track frame offsets: 
#        150
#        27909
#        54574
#        83795
#        111536
#        135457
#        163391
#        190886
#        218053
#        244167
#        271333
#        297861
#
# Disc length: 4328 seconds
#
# Revision: 4
# Processed by: cddbd v1.5.2PL0 Copyright (c) Steve Scherf et al.
# Submitted via: ExactAudioCopyFreeDBPlugin 1.0
#
DISCID=b310e60c
DTITLE=Various Artist - Hed Kandi: Beach House [HEDK091]
DYEAR=2009
DGENRE=House
TTITLE0=Marcella feat I-Fan - Believe In Us (Robbie Taylor Classic Voc
TTITLE0=al Mix)
TTITLE1=Torvill and Deen feat Tyree Cooper - Keep It Poppin (The SoundDi
TTITLE1=ggers Raunchy Re-Rub)
TTITLE2=Wez Clarke and Maxine Hardcastle - Bringing Me Back
TTITLE3=Daniel Bovie and Roy Rox feat Nelson - Love Me
TTITLE4=Doug Willis - Spread Love (Album Mix)
TTITLE5=Afro Medusa - Oracle (GRs Latin Soul Mix)
TTITLE6=Identity - Cuba Libre
TTITLE7=Dutchican Soul - Jazz It Up
TTITLE8=The RAH Band - No Way (Main Vocal Mix)
TTITLE9=No Halo - What Is This Feeling (Disco Dealers En La Playa Remi
TTITLE9=x)
TTITLE10=Studio Apartment feat Yasmeen Sulieman - Sun Will Shine (MK M
TTITLE10=ix)
TTITLE11=Thomas Toccafondi feat Kaysee - Ive Changed (Dj Lazz Remix)
EXTD=
EXTT0=
EXTT1=
EXTT2=
EXTT3=
EXTT4=
EXTT5=
EXTT6=
EXTT7=
EXTT8=
EXTT9=
EXTT10=
EXTT11=
PLAYORDER=
